<svg version="1" xmlns="http://www.w3.org/2000/svg" width="1066.667" height="1066.667" viewBox="0 0 800.000000 800.000000"><path d="M178.5 323.7C92.2 480.8 16.6 618.2 10.7 629L-.1 648.8l30.7 55.3c16.9 30.5 30.8 55.5 30.8 55.6.1 0 101.8.6 226.1 1.2s277.3 1.4 340.1 1.7l114.1.7 29.1-56.5c16.1-31.1 29.2-57.1 29.2-57.8 0-.7-76.2-138.4-169.2-306.1L461.5 38h-126l-157 285.7zm450.9 19.9c92.8 167 168.5 303.8 168.3 304-.2.2-124.4.3-276.1.2l-275.6-.3 29.4-52.5 29.4-52.5 157.1-.3c86.4-.1 157.1-.5 157.1-1 0-.4-63.2-113.2-140.5-250.6C401.2 153.2 338 40.6 338 40.4c0-.2 27.6-.4 61.4-.4h61.3l168.7 303.6zM448.8 457l44.9 82.5-46.9.3c-25.7.1-67.9.1-93.6 0l-46.9-.3 47.6-84.6c43-76.6 47.7-84.5 48.8-82.5.7 1.1 21.4 39.2 46.1 84.6z"/></svg>